<svg xmlns="http://www.w3.org/2000/svg" viewBox="0 0 400 400" width="100%" height="100%">
  <defs>
    <filter id="drop-shadow" x="-10%" y="-10%" width="130%" height="130%">
      <feDropShadow dx="0" dy="8" stdDeviation="12" flood-color="#000000" flood-opacity="0.08"/>
    </filter>
  </defs>

  <rect width="400" height="400" fill="#FAFAFA" rx="30"/>

  <g transform="translate(60, 70)" filter="url(#drop-shadow)">
    <path d="M 20 0 L 120 0 A 20 20 0 0 1 140 20 L 140 120 A 20 20 0 0 1 120 140 L 60 140 L 20 180 L 20 140 A 20 20 0 0 1 0 120 L 0 20 A 20 20 0 0 1 20 0 Z" fill="#FFFFFF" />
    <circle cx="45" cy="55" r="8" fill="#9E9E9E"/>
    <circle cx="95" cy="55" r="8" fill="#9E9E9E"/>
    <path d="M 35 90 L 105 90" fill="none" stroke="#9E9E9E" stroke-width="8" stroke-linecap="round"/>
  </g>

  <g transform="translate(190, 130)" filter="url(#drop-shadow)">
    <path d="M 20 0 L 120 0 A 20 20 0 0 1 140 20 L 140 120 A 20 20 0 0 1 120 140 L 120 180 L 80 140 L 20 140 A 20 20 0 0 1 0 120 L 0 20 A 20 20 0 0 1 20 0 Z" fill="#D91023"/>
    <circle cx="45" cy="55" r="8" fill="#FFFFFF"/>
    <circle cx="95" cy="55" r="8" fill="#FFFFFF"/>
    <path d="M 35 85 Q 70 120 105 85" fill="none" stroke="#FFFFFF" stroke-width="8" stroke-linecap="round"/>
  </g>

  <text x="200" y="335" font-family="system-ui, -apple-system, BlinkMacSystemFont, 'Segoe UI', Roboto, sans-serif" font-weight="800" font-size="34" fill="#212121" text-anchor="middle">SentiVoto</text>
  <text x="200" y="365" font-family="system-ui, -apple-system, BlinkMacSystemFont, 'Segoe UI', Roboto, sans-serif" font-weight="600" font-size="14" fill="#D91023" text-anchor="middle" letter-spacing="5">PERU</text>
</svg>
